<?xml version="1.0" encoding="UTF-8" standalone="no"?>
<!-- Created with Inkscape (http://www.inkscape.org/) -->

<svg
   width="210mm"
   height="297mm"
   viewBox="0 0 210 297"
   version="1.1"
   id="svg135"
   xml:space="preserve"
   inkscape:version="1.2.2 (732a01da63, 2022-12-09)"
   sodipodi:docname="heart.svg"
   inkscape:export-filename="..\..\..\..\..\..\Bureau\heart.png"
   inkscape:export-xdpi="96"
   inkscape:export-ydpi="96"
   xmlns:inkscape="http://www.inkscape.org/namespaces/inkscape"
   xmlns:sodipodi="http://sodipodi.sourceforge.net/DTD/sodipodi-0.dtd"
   xmlns="http://www.w3.org/2000/svg"
   xmlns:svg="http://www.w3.org/2000/svg"><sodipodi:namedview
     id="namedview137"
     pagecolor="#505050"
     bordercolor="#eeeeee"
     borderopacity="1"
     inkscape:showpageshadow="0"
     inkscape:pageopacity="0"
     inkscape:pagecheckerboard="0"
     inkscape:deskcolor="#505050"
     inkscape:document-units="mm"
     showgrid="false"
     inkscape:zoom="1.6819304"
     inkscape:cx="423.91766"
     inkscape:cy="599.31136"
     inkscape:window-width="1280"
     inkscape:window-height="961"
     inkscape:window-x="-8"
     inkscape:window-y="-8"
     inkscape:window-maximized="1"
     inkscape:current-layer="layer1" /><defs
     id="defs132" /><g
     inkscape:label="Calque 1"
     inkscape:groupmode="layer"
     id="layer1"><g
       id="g12410"><path
         style="opacity:0.86;fill:#ccd4d9;fill-opacity:1;stroke:#c3f1f8;stroke-width:0.269335;stroke-opacity:0.408805"
         d="m 129.6567,151.95453 3.77039,-3.591 v 0 l -2.85635,-4.37652 -1.37106,-5.04987 1.02829,-5.04984 2.05657,-4.37656 4.11317,-3.14211 2.85636,-1.6833 -2.39934,-1.68328 -4.22742,-1.00997 -4.91293,0.67331 -3.7704,2.24438 -2.62786,2.01994 -0.79978,0.22445 -4.22741,-2.69327 -2.85637,-1.7955 -4.2274,-0.44887 h -2.85637 l -2.85636,1.2344 -2.97063,2.13217 -1.485303,2.01994 -1.142546,1.90771 -0.457016,4.82542 1.256798,3.70324 3.884657,4.26431 17.93795,17.05728 z"
         id="path3091" /><ellipse
         style="opacity:0.86;fill:#ccd4d9;fill-opacity:1;stroke:#f4fcfd;stroke-width:0.237097;stroke-opacity:1"
         id="path3577"
         ry="10.581019"
         rx="10.080464"
         cy="138.56329"
         cx="142.98537" /><path
         style="fill:#fefefe;fill-opacity:1;stroke-width:0.350236"
         d="M 113.43558,158.32844 C 99.305412,145.01445 96.206853,141.86792 95.233347,139.84439 c -1.404016,-2.91839 -1.841252,-5.77838 -1.331411,-8.70887 1.959281,-11.26161 14.937844,-16.4357 24.664514,-9.83287 l 1.86014,1.26274 1.86013,-1.26274 c 6.45263,-4.38028 14.88102,-3.73898 20.39176,1.55158 1.32715,1.27413 2.21853,1.81617 3.42485,2.08263 2.39884,0.52987 5.52221,2.29591 7.16248,4.04984 0.79229,0.8472 1.9429,2.58552 2.5569,3.86294 1.00961,2.10047 1.11638,2.6385 1.11638,5.62586 0,2.98737 -0.10677,3.5254 -1.11638,5.62586 -1.52706,3.17703 -3.56306,5.25125 -6.60644,6.73045 -8.28268,4.02572 -17.8145,-0.52549 -19.96851,-9.53448 -1.39471,-5.83325 1.88786,-12.4138 7.61663,-15.26901 l 2.06476,-1.02907 -1.22559,-0.74503 c -2.06851,-1.25743 -4.81305,-1.88482 -7.26001,-1.6596 -2.76146,0.25416 -4.84233,1.21173 -7.36899,3.391 -1.09091,0.94093 -2.2825,1.71077 -2.64797,1.71077 -0.36548,0 -1.55706,-0.76984 -2.64798,-1.71077 -3.07487,-2.65213 -4.72325,-3.31233 -8.29555,-3.3225 -2.70341,-0.008 -3.24654,0.10814 -5.39504,1.15066 -4.173402,2.02506 -6.509082,5.92754 -6.154389,10.28283 0.314231,3.85845 0.991983,4.71318 12.112629,15.27556 5.56972,5.29013 10.27863,9.6184 10.46424,9.6184 0.18561,0 1.39359,-0.98254 2.68442,-2.18343 5.92347,-5.51076 6.42406,-5.79409 7.815,-4.42312 1.19731,1.18013 0.88334,2.07953 -1.4993,4.29488 -5.4861,5.1009 -8.42101,7.52737 -9.10467,7.52737 -0.46619,0 -2.99856,-2.13545 -6.97037,-5.87783 z m 32.94253,-10.69984 c 2.33121,-0.78292 5.11835,-3.53005 5.91267,-5.82779 1.29645,-3.75023 0.45342,-7.33147 -2.38424,-10.12839 -4.00238,-3.94492 -9.80197,-3.94492 -13.80435,0 -3.99533,3.93797 -3.99338,9.67011 0.005,13.61072 2.81179,2.77141 6.49716,3.61297 10.2713,2.34546 z m -4.78486,-2.89427 c -0.51741,-0.50998 -0.70555,-1.15903 -0.70555,-2.43398 v -1.73857 h -1.8856 c -2.11818,0 -3.05329,-0.65746 -3.05329,-2.14669 0,-1.35814 1.02657,-2.02586 3.11458,-2.02586 h 1.82431 v -1.66121 c 0,-2.08271 0.74195,-3.20678 2.11666,-3.20678 1.37472,0 2.11667,1.12407 2.11667,3.20678 v 1.66121 h 1.68539 c 2.11306,0 3.2535,0.7313 3.2535,2.08627 0,1.35498 -1.14044,2.08628 -3.2535,2.08628 h -1.68539 v 1.73857 c 0,1.90642 -0.82721,3.12941 -2.11667,3.12941 -0.38805,0 -1.02305,-0.31294 -1.41111,-0.69543 z"
         id="path426" /></g></g></svg>
